{
    "asset" : {
        "generator" : "Khronos glTF Blender I/O v1.1.46",
        "version" : "2.0"
    },
    "scene" : 0,
    "scenes" : [
        {
            "name" : "Scene",
            "nodes" : [
                0
            ]
        }
    ],
    "nodes" : [
        {
            "mesh" : 0,
            "name" : "Cube.001",
            "translation" : [
                0,
                6.8077712059021,
                0.032962001860141754
            ]
        }
    ],
    "materials" : [
        {
            "doubleSided" : true,
            "emissiveFactor" : [
                0,
                0,
                0
            ],
            "name" : "character",
            "pbrMetallicRoughness" : {
                "baseColorFactor" : [
                    0.8000000715255737,
                    0.6402056813240051,
                    0.00317154498770833,
                    1
                ],
                "metallicFactor" : 0,
                "roughnessFactor" : 0.5
            }
        }
    ],
    "meshes" : [
        {
            "name" : "Cube.001",
            "primitives" : [
                {
                    "attributes" : {
                        "POSITION" : 0,
                        "NORMAL" : 1,
                        "TEXCOORD_0" : 2,
                        "JOINTS_0" : 3,
                        "WEIGHTS_0" : 4
                    },
                    "indices" : 5,
                    "material" : 0
                }
            ]
        }
    ],
    "accessors" : [
        {
            "bufferView" : 0,
            "componentType" : 5126,
            "count" : 1226,
            "max" : [
                5.950979232788086,
                5.698338985443115,
                1.8748687505722046
            ],
            "min" : [
                -5.950979232788086,
                -6.812469482421875,
                -1.1889363527297974
            ],
            "type" : "VEC3"
        },
        {
            "bufferView" : 1,
            "componentType" : 5126,
            "count" : 1226,
            "type" : "VEC3"
        },
        {
            "bufferView" : 2,
            "componentType" : 5126,
            "count" : 1226,
            "type" : "VEC2"
        },
        {
            "bufferView" : 3,
            "componentType" : 5123,
            "count" : 1226,
            "type" : "VEC4"
        },
        {
            "bufferView" : 4,
            "componentType" : 5126,
            "count" : 1226,
            "type" : "VEC4"
        },
        {
            "bufferView" : 5,
            "componentType" : 5123,
            "count" : 1782,
            "type" : "SCALAR"
        }
    ],
    "bufferViews" : [
        {
            "buffer" : 0,
            "byteLength" : 14712,
            "byteOffset" : 0
        },
        {
            "buffer" : 0,
            "byteLength" : 14712,
            "byteOffset" : 14712
        },
        {
            "buffer" : 0,
            "byteLength" : 9808,
            "byteOffset" : 29424
        },
        {
            "buffer" : 0,
            "byteLength" : 9808,
            "byteOffset" : 39232
        },
        {
            "buffer" : 0,
            "byteLength" : 19616,
            "byteOffset" : 49040
        },
        {
            "buffer" : 0,
            "byteLength" : 3564,
            "byteOffset" : 68656
        }
    ],
    "buffers" : [
        {
            "byteLength" : 72220,
            "uri" : "data:application/octet-stream;base64,"
        }
    ]
}
